<?xml version="1.0" encoding="UTF-8" standalone="no"?>
<!DOCTYPE svg PUBLIC "-//W3C//DTD SVG 1.1//EN" "http://www.w3.org/Graphics/SVG/1.1/DTD/svg11.dtd">
<!-- Generated by Microsoft Visio, SVG Export ztls states.svg Page-1 -->
<svg xmlns="http://www.w3.org/2000/svg" xmlns:xlink="http://www.w3.org/1999/xlink" xmlns:ev="http://www.w3.org/2001/xml-events"
		xmlns:v="http://schemas.microsoft.com/visio/2003/SVGExtensions/" width="11.6929in" height="8.26772in"
		viewBox="0 0 841.89 595.276" xml:space="preserve" color-interpolation-filters="sRGB" class="st14">
	<title>ztls state machine</title>
	<v:documentProperties v:langID="1033" v:metric="true" v:viewMarkup="false">
		<v:userDefs>
			<v:ud v:nameU="msvNoAutoConnect" v:val="VT0(1):26"/>
			<v:ud v:nameU="msvSubprocessMaster" v:prompt="" v:val="VT4(Multiple process)"/>
		</v:userDefs>
	</v:documentProperties>

	<style type="text/css">
	<![CDATA[
		.st1 {visibility:visible}
		.st2 {fill:#5b9bd5;fill-opacity:0.22;filter:url(#filter_2);stroke:#5b9bd5;stroke-opacity:0.22}
		.st3 {fill:#9bc2e6;stroke:#c8c8c8;stroke-width:0.25}
		.st4 {fill:#5b9bd5;stroke:#c8c8c8;stroke-width:0.25}
		.st5 {fill:#feffff;font-family:Calibri;font-size:0.666664em}
		.st6 {marker-end:url(#mrkr4-32);stroke:#5b9bd5;stroke-linecap:round;stroke-linejoin:round;stroke-width:1}
		.st7 {fill:#5b9bd5;fill-opacity:1;stroke:#5b9bd5;stroke-opacity:1;stroke-width:0.28409090909091}
		.st8 {fill:#ffffff;stroke:none;stroke-linecap:butt;stroke-width:7.2}
		.st9 {fill:#4f88bb;font-family:Calibri;font-size:0.666664em}
		.st10 {marker-end:url(#mrkr4-54);stroke:#ed7d31;stroke-linecap:round;stroke-linejoin:round;stroke-width:1}
		.st11 {fill:#ed7d31;fill-opacity:1;stroke:#ed7d31;stroke-opacity:1;stroke-width:0.28409090909091}
		.st12 {fill:#d16d2a;font-family:Calibri;font-size:0.666664em}
		.st13 {fill:#2d71ae;stroke:#c8c8c8;stroke-width:0.25}
		.st14 {fill:none;fill-rule:evenodd;font-size:12px;overflow:visible;stroke-linecap:square;stroke-miterlimit:3}
	]]>
	</style>

	<defs id="Markers">
		<g id="lend4">
			<path d="M 2 1 L 0 0 L 2 -1 L 2 1 " style="stroke:none"/>
		</g>
		<marker id="mrkr4-32" class="st7" v:arrowType="4" v:arrowSize="2" v:setback="7.04" refX="-7.04" orient="auto"
				markerUnits="strokeWidth" overflow="visible">
			<use xlink:href="#lend4" transform="scale(-3.52,-3.52) "/>
		</marker>
		<marker id="mrkr4-54" class="st11" v:arrowType="4" v:arrowSize="2" v:setback="7.04" refX="-7.04" orient="auto"
				markerUnits="strokeWidth" overflow="visible">
			<use xlink:href="#lend4" transform="scale(-3.52,-3.52) "/>
		</marker>
	</defs>
	<defs id="Filters">
		<filter id="filter_2">
			<feGaussianBlur stdDeviation="2"/>
		</filter>
	</defs>
	<g v:mID="0" v:index="1" v:groupContext="foregroundPage">
		<v:userDefs>
			<v:ud v:nameU="msvThemeOrder" v:val="VT0(0):26"/>
		</v:userDefs>
		<title>Page-1</title>
		<v:pageProperties v:drawingScale="0.0393701" v:pageScale="0.0393701" v:drawingUnits="24" v:shadowOffsetX="8.50394"
				v:shadowOffsetY="-8.50394"/>
		<v:layer v:name="Flowchart" v:index="0"/>
		<v:layer v:name="Connector" v:index="1"/>
		<g id="group1-1" transform="translate(42.5197,-432.85)" v:mID="1" v:groupContext="group" v:layerMember="0">
			<v:custProps>
				<v:cp v:nameU="Cost" v:lbl="Cost" v:type="7" v:format="@" v:langID="1033"/>
				<v:cp v:nameU="Duration" v:lbl="Duration" v:type="2" v:langID="1033"/>
				<v:cp v:nameU="Resources" v:lbl="Resources" v:langID="1033"/>
			</v:custProps>
			<v:userDefs>
				<v:ud v:nameU="visVersion" v:val="VT0(15):26"/>
			</v:userDefs>
			<title>Start state</title>
			<g id="shape2-2" v:mID="2" v:groupContext="shape" v:layerMember="0">
				<title>Sheet.2</title>
				<g id="shadow2-3" v:groupContext="shadow" v:shadowOffsetX="0.345598" v:shadowOffsetY="-1.97279" v:shadowType="1"
						transform="matrix(1,0,0,1,0.345598,1.97279)" class="st1">
					<path d="M0 559.46 A35.8178 35.8178 0 1 1 71.64 559.46 A35.8178 35.8178 0 0 1 0 559.46 Z" class="st2"/>
				</g>
				<path d="M0 559.46 A35.8178 35.8178 0 1 1 71.64 559.46 A35.8178 35.8178 0 0 1 0 559.46 Z" class="st3"/>
			</g>
			<g id="shape3-7" v:mID="3" v:groupContext="shape" v:layerMember="0" transform="translate(7.16357,-7.16357)">
				<title>Sheet.3</title>
				<path d="M0 566.62 A28.6543 28.6543 0 0 1 57.31 566.62 A28.6543 28.6543 0 1 1 0 566.62 Z" class="st4"/>
			</g>
		</g>
		<g id="shape4-9" v:mID="4" v:groupContext="shape" v:layerMember="0" transform="translate(208.899,-432.85)">
			<title>State</title>
			<desc>Handshake</desc>
			<v:custProps>
				<v:cp v:nameU="Cost" v:lbl="Cost" v:type="7" v:format="@" v:langID="1033"/>
				<v:cp v:nameU="Duration" v:lbl="Duration" v:type="2" v:langID="1033"/>
				<v:cp v:nameU="Resources" v:lbl="Resources" v:langID="1033"/>
			</v:custProps>
			<v:userDefs>
				<v:ud v:nameU="visVersion" v:val="VT0(15):26"/>
			</v:userDefs>
			<v:textBlock v:margins="rect(1,1,1,1)" v:tabSpace="42.5197"/>
			<v:textRect cx="35.8178" cy="559.458" width="71.64" height="71.6357"/>
			<g id="shadow4-10" v:groupContext="shadow" v:shadowOffsetX="0.345598" v:shadowOffsetY="-1.97279" v:shadowType="1"
					transform="matrix(1,0,0,1,0.345598,1.97279)" class="st1">
				<path d="M0 559.46 A35.8178 35.8178 0 0 1 71.64 559.46 A35.8178 35.8178 0 1 1 0 559.46 Z" class="st2"/>
			</g>
			<path d="M0 559.46 A35.8178 35.8178 0 0 1 71.64 559.46 A35.8178 35.8178 0 1 1 0 559.46 Z" class="st4"/>
			<text x="17.82" y="561.86" class="st5" v:langID="1033"><v:paragraph v:horizAlign="1"/><v:tabList/>Handshake</text>		</g>
		<g id="shape5-15" v:mID="5" v:groupContext="shape" v:layerMember="0" transform="translate(375.279,-432.85)">
			<title>State.5</title>
			<desc>Transporting</desc>
			<v:custProps>
				<v:cp v:nameU="Cost" v:lbl="Cost" v:type="7" v:format="@" v:langID="1033"/>
				<v:cp v:nameU="Duration" v:lbl="Duration" v:type="2" v:langID="1033"/>
				<v:cp v:nameU="Resources" v:lbl="Resources" v:langID="1033"/>
			</v:custProps>
			<v:userDefs>
				<v:ud v:nameU="visVersion" v:val="VT0(15):26"/>
			</v:userDefs>
			<v:textBlock v:margins="rect(1,1,1,1)" v:tabSpace="42.5197"/>
			<v:textRect cx="35.8178" cy="559.458" width="71.64" height="71.6357"/>
			<g id="shadow5-16" v:groupContext="shadow" v:shadowOffsetX="0.345598" v:shadowOffsetY="-1.97279" v:shadowType="1"
					transform="matrix(1,0,0,1,0.345598,1.97279)" class="st1">
				<path d="M0 559.46 A35.8178 35.8178 0 0 1 71.64 559.46 A35.8178 35.8178 0 1 1 0 559.46 Z" class="st2"/>
			</g>
			<path d="M0 559.46 A35.8178 35.8178 0 0 1 71.64 559.46 A35.8178 35.8178 0 1 1 0 559.46 Z" class="st4"/>
			<text x="15.04" y="561.86" class="st5" v:langID="1033"><v:paragraph v:horizAlign="1"/><v:tabList/>Transporting</text>		</g>
		<g id="shape6-21" v:mID="6" v:groupContext="shape" v:layerMember="0" transform="translate(552.924,-432.85)">
			<title>State.6</title>
			<desc>Inactive</desc>
			<v:custProps>
				<v:cp v:nameU="Cost" v:lbl="Cost" v:type="7" v:format="@" v:langID="1033"/>
				<v:cp v:nameU="Duration" v:lbl="Duration" v:type="2" v:langID="1033"/>
				<v:cp v:nameU="Resources" v:lbl="Resources" v:langID="1033"/>
			</v:custProps>
			<v:userDefs>
				<v:ud v:nameU="visVersion" v:val="VT0(15):26"/>
			</v:userDefs>
			<v:textBlock v:margins="rect(1,1,1,1)" v:tabSpace="42.5197"/>
			<v:textRect cx="35.8178" cy="559.458" width="71.64" height="71.6357"/>
			<g id="shadow6-22" v:groupContext="shadow" v:shadowOffsetX="0.345598" v:shadowOffsetY="-1.97279" v:shadowType="1"
					transform="matrix(1,0,0,1,0.345598,1.97279)" class="st1">
				<path d="M0 559.46 A35.8178 35.8178 0 0 1 71.64 559.46 A35.8178 35.8178 0 1 1 0 559.46 Z" class="st2"/>
			</g>
			<path d="M0 559.46 A35.8178 35.8178 0 0 1 71.64 559.46 A35.8178 35.8178 0 1 1 0 559.46 Z" class="st4"/>
			<text x="23.05" y="561.86" class="st5" v:langID="1033"><v:paragraph v:horizAlign="1"/><v:tabList/>Inactive</text>		</g>
		<g id="shape7-27" v:mID="7" v:groupContext="shape" v:layerMember="1" transform="translate(114.155,-461.582)">
			<title>Dynamic connector</title>
			<desc>Init</desc>
			<v:userDefs>
				<v:ud v:nameU="visVersion" v:val="VT0(15):26"/>
			</v:userDefs>
			<v:textBlock v:margins="rect(4,4,4,4)" v:tabSpace="42.5197"/>
			<v:textRect cx="47.372" cy="588.189" width="40" height="17.6036"/>
			<path d="M0 588.19 L87.7 588.19" class="st6"/>
			<rect v:rectContext="textBkgnd" x="42.005" y="583.389" width="10.7342" height="9.59985" class="st8"/>
			<text x="42" y="590.59" class="st9" v:langID="1033"><v:paragraph v:horizAlign="1"/><v:tabList/>Init</text>		</g>
		<g id="shape8-35" v:mID="8" v:groupContext="shape" v:layerMember="1" transform="translate(280.535,-461.582)">
			<title>Dynamic connector.8</title>
			<desc>Success</desc>
			<v:userDefs>
				<v:ud v:nameU="visVersion" v:val="VT0(15):26"/>
			</v:userDefs>
			<v:textBlock v:margins="rect(4,4,4,4)" v:tabSpace="42.5197"/>
			<v:textRect cx="47.372" cy="588.189" width="40" height="17.6036"/>
			<path d="M0 588.19 L87.7 588.19" class="st6"/>
			<rect v:rectContext="textBkgnd" x="34.9309" y="583.389" width="24.8824" height="9.59985" class="st8"/>
			<text x="34.93" y="590.59" class="st9" v:langID="1033"><v:paragraph v:horizAlign="1"/><v:tabList/>Success</text>		</g>
		<g id="shape9-42" v:mID="9" v:groupContext="shape" v:layerMember="1" transform="translate(446.915,-461.582)">
			<title>Dynamic connector.9</title>
			<desc>Close</desc>
			<v:userDefs>
				<v:ud v:nameU="visVersion" v:val="VT0(15):26"/>
			</v:userDefs>
			<v:textBlock v:margins="rect(4,4,4,4)" v:tabSpace="42.5197"/>
			<v:textRect cx="53.0046" cy="588.189" width="40" height="17.6036"/>
			<path d="M0 588.19 L98.97 588.19" class="st6"/>
			<rect v:rectContext="textBkgnd" x="44.2898" y="583.389" width="17.4295" height="9.59985" class="st8"/>
			<text x="44.29" y="590.59" class="st9" v:langID="1033"><v:paragraph v:horizAlign="1"/><v:tabList/>Close</text>		</g>
		<g id="shape10-49" v:mID="10" v:groupContext="shape" v:layerMember="1" transform="translate(244.717,-425.764)">
			<title>Dynamic connector.10</title>
			<desc>Handshake error</desc>
			<v:userDefs>
				<v:ud v:nameU="visVersion" v:val="VT0(15):26"/>
			</v:userDefs>
			<v:textBlock v:margins="rect(4,4,4,4)" v:tabSpace="42.5197"/>
			<v:textRect cx="172.012" cy="670.281" width="64.2" height="17.6036"/>
			<path d="M0 588.19 L0 670.28 L344.02 670.28 L344.02 595.23" class="st10"/>
			<rect v:rectContext="textBkgnd" x="144.823" y="665.481" width="54.3788" height="9.59985" class="st8"/>
			<text x="144.82" y="672.68" class="st12" v:langID="1033"><v:paragraph v:horizAlign="1"/><v:tabList/>Handshake error</text>		</g>
		<g id="shape11-57" v:mID="11" v:groupContext="shape" v:layerMember="1" transform="translate(411.097,-425.764)">
			<title>Dynamic connector.11</title>
			<desc>Renegotiate</desc>
			<v:userDefs>
				<v:ud v:nameU="visVersion" v:val="VT0(15):26"/>
			</v:userDefs>
			<v:textBlock v:margins="rect(4,4,4,4)" v:tabSpace="42.5197"/>
			<v:textRect cx="-164.343" cy="637.682" width="49.32" height="17.6036"/>
			<path d="M0 588.19 L0 637.68 L-161.66 637.68 A4.72441 4.72441 -180 0 0 -171.1 637.68 L-247.53 637.68 L-247.53 588.19
						 L-173.42 588.19" class="st10"/>
			<rect v:rectContext="textBkgnd" x="-184.093" y="632.882" width="39.4991" height="9.59985" class="st8"/>
			<text x="-184.09" y="640.08" class="st12" v:langID="1033"><v:paragraph v:horizAlign="1"/><v:tabList/>Renegotiate</text>		</g>
		<g id="group12-64" transform="translate(730.569,-432.85)" v:mID="12" v:groupContext="group" v:layerMember="0">
			<v:custProps>
				<v:cp v:nameU="Cost" v:lbl="Cost" v:type="7" v:format="@" v:langID="1033"/>
				<v:cp v:nameU="Duration" v:lbl="Duration" v:type="2" v:langID="1033"/>
				<v:cp v:nameU="Resources" v:lbl="Resources" v:langID="1033"/>
			</v:custProps>
			<v:userDefs>
				<v:ud v:nameU="visVersion" v:val="VT0(15):26"/>
			</v:userDefs>
			<title>Stop state</title>
			<g id="shape13-65" v:mID="13" v:groupContext="shape" v:layerMember="0">
				<title>Sheet.13</title>
				<g id="shadow13-66" v:groupContext="shadow" v:shadowOffsetX="0.345598" v:shadowOffsetY="-1.97279" v:shadowType="1"
						transform="matrix(1,0,0,1,0.345598,1.97279)" class="st1">
					<path d="M0 559.46 A35.8178 35.8178 0 1 1 71.64 559.46 A35.8178 35.8178 0 0 1 0 559.46 Z" class="st2"/>
				</g>
				<path d="M0 559.46 A35.8178 35.8178 0 1 1 71.64 559.46 A35.8178 35.8178 0 0 1 0 559.46 Z" class="st13"/>
			</g>
			<g id="shape14-70" v:mID="14" v:groupContext="shape" v:layerMember="0" transform="translate(7.16357,-7.16357)">
				<title>Sheet.14</title>
				<path d="M0 566.62 A28.6543 28.6543 0 0 1 57.31 566.62 A28.6543 28.6543 0 1 1 0 566.62 Z" class="st4"/>
			</g>
		</g>
		<g id="shape15-72" v:mID="15" v:groupContext="shape" v:layerMember="1" transform="translate(624.56,-461.582)">
			<title>Dynamic connector.15</title>
			<desc>Destroy</desc>
			<v:userDefs>
				<v:ud v:nameU="visVersion" v:val="VT0(15):26"/>
			</v:userDefs>
			<v:textBlock v:margins="rect(4,4,4,4)" v:tabSpace="42.5197"/>
			<v:textRect cx="53.0046" cy="588.189" width="40" height="17.6036"/>
			<path d="M0 588.19 L98.97 588.19" class="st6"/>
			<rect v:rectContext="textBkgnd" x="40.3347" y="583.389" width="25.3397" height="9.59985" class="st8"/>
			<text x="40.33" y="590.59" class="st9" v:langID="1033"><v:paragraph v:horizAlign="1"/><v:tabList/>Destroy</text>		</g>
		<g id="shape16-79" v:mID="16" v:groupContext="shape" v:layerMember="1" transform="translate(588.742,-497.399)">
			<title>Dynamic connector.16</title>
			<desc>Reinit</desc>
			<v:userDefs>
				<v:ud v:nameU="visVersion" v:val="VT0(15):26"/>
			</v:userDefs>
			<v:textBlock v:margins="rect(4,4,4,4)" v:tabSpace="42.5197"/>
			<v:textRect cx="-172.012" cy="566.929" width="40" height="17.6036"/>
			<path d="M0 588.19 L0 566.93 L-80.87 566.93 A4.72441 4.72441 -180 0 0 -90.32 566.93 L-172.92 566.93 A4.72441 4.72441
						 -180 1 0 -182.37 566.93 L-344.02 566.93 L-344.02 581.15" class="st6"/>
			<rect v:rectContext="textBkgnd" x="-181.451" y="562.129" width="18.8784" height="9.59985" class="st8"/>
			<text x="-181.45" y="569.33" class="st9" v:langID="1033"><v:paragraph v:horizAlign="1"/><v:tabList/>Reinit</text>		</g>
		<g id="shape17-86" v:mID="17" v:groupContext="shape" v:layerMember="1" transform="translate(411.097,-497.399)">
			<title>Dynamic connector.17</title>
			<desc>Transport error</desc>
			<v:userDefs>
				<v:ud v:nameU="visVersion" v:val="VT0(15):26"/>
			</v:userDefs>
			<v:textBlock v:margins="rect(4,4,4,4)" v:tabSpace="42.5197"/>
			<v:textRect cx="88.8225" cy="532.152" width="59.93" height="17.6036"/>
			<path d="M0 588.19 L0 532.15 L92.05 532.15 L92.05 588.19 L170.6 588.19" class="st10"/>
			<rect v:rectContext="textBkgnd" x="63.7639" y="527.353" width="50.1174" height="9.59985" class="st8"/>
			<text x="63.76" y="534.55" class="st12" v:langID="1033"><v:paragraph v:horizAlign="1"/><v:tabList/>Transport error</text>		</g>
	</g>
</svg>
